<?xml version="1.0" encoding="UTF-8" standalone="no" ?>
<!DOCTYPE svg PUBLIC "-//W3C//DTD SVG 1.1//EN" "http://www.w3.org/Graphics/SVG/1.1/DTD/svg11.dtd">
<svg xmlns="http://www.w3.org/2000/svg" xmlns:xlink="http://www.w3.org/1999/xlink" version="1.1" width="1080" height="1080" viewBox="0 0 1080 1080" xml:space="preserve">
<desc>Created with Fabric.js 5.2.4</desc>
<defs>
</defs>
<rect x="0" y="0" width="100%" height="100%" fill="transparent"></rect>
<g transform="matrix(1 0 0 1 540 540)" id="b741de90-134c-47d4-9952-c60c2b7a479d"  >
<rect style="stroke: none; stroke-width: 1; stroke-dasharray: none; stroke-linecap: butt; stroke-dashoffset: 0; stroke-linejoin: miter; stroke-miterlimit: 4; fill: rgb(255,255,255); fill-rule: nonzero; opacity: 1; visibility: hidden;" vector-effect="non-scaling-stroke"  x="-540" y="-540" rx="0" ry="0" width="1080" height="1080" />
</g>
<g transform="matrix(1 0 0 1 540 540)" id="8da3a862-87e1-40da-a48e-f8a9dd3216a6"  >
</g>
<g transform="matrix(1.33 0 0 1.33 540 540)"  >
<path style="stroke: none; stroke-width: 1; stroke-dasharray: none; stroke-linecap: butt; stroke-dashoffset: 0; stroke-linejoin: miter; stroke-miterlimit: 4; fill: rgb(0,0,0); fill-rule: nonzero; opacity: 1;" vector-effect="non-scaling-stroke"  transform=" translate(-350.01, -280)" d="M 452.74 160.98 C 428.849 125.15199999999999 393.998 94.71799999999999 360.572 80.445 C 337.166 70.42899999999999 307.209 75.8278 297.365 101.023 L 250.955 54.605 C 231.33 35.015 201.264 40.988 186.971 62.64019999999999 C 149.53 29.753199999999993 91.979 82.6952 130.764 122.26919999999998 C 109.42800000000001 136.5502 103.659 165.3472 123.1624 184.8592 L 134.0414 195.7342 C 110.10340000000001 209.56619999999998 105.15040000000002 240.8432 125.60780000000001 261.3002 L 228.57780000000002 364.28020000000004 C 275.49980000000005 408.03420000000006 295.4488 432.7062 336.93780000000004 432.0572 L 325.0468 443.94820000000004 C 319.70300000000003 449.29200000000003 319.70300000000003 457.97120000000007 325.0468 463.31520000000006 L 379.01980000000003 517.2882000000001 L 398.38680000000005 497.92120000000006 L 354.09780000000006 453.63220000000007 L 525.1178000000001 282.61220000000003 L 569.4068000000001 326.89320000000004 L 588.7738 307.5262 L 535.0468000000001 253.8032 L 534.8007100000001 253.5532 C 529.4569100000001 248.2173 520.7777100000001 248.2173 515.4337100000001 253.5532 L 505.47281000000015 263.5141 C 500.07441000000017 232.69009999999997 481.39881000000014 203.95909999999998 452.74281000000013 160.97409999999996 z M 374.33000000000004 394.65999999999997 C 373.1738 394.726407 371.95500000000004 394.92562999999996 370.69720000000007 395.26937999999996 C 312.7952000000001 410.91437999999994 299.0642000000001 391.05457999999993 250.49720000000008 342.32437999999996 L 147.5372000000001 239.35437999999996 C 136.57620000000009 228.39337999999995 152.9278000000001 213.10437999999996 165.0532000000001 226.78837999999996 L 231.4122000000001 293.15538 C 245.8502000000001 307.58938 267.7912000000001 285.63588 253.3502000000001 271.20238 L 145.07020000000009 162.90238 C 137.3710000000001 155.21098 149.29680000000008 141.73038 156.82420000000008 148.36338 L 254.98020000000008 246.53138 C 269.41820000000007 260.96538000000004 291.35120000000006 239.00408000000002 276.9142000000001 224.58638000000002 L 153.1042000000001 100.73638000000003 C 141.8582000000001 89.51338000000003 156.0534000000001 75.47838000000003 168.5492000000001 87.97038000000002 L 293.5992000000001 213.05038000000002 C 308.03320000000014 227.48438000000002 329.9582000000001 205.51518000000002 315.53320000000014 191.09738000000002 L 214.56320000000014 90.11738000000001 C 205.20380000000014 80.76578 220.96550000000013 68.53538 229.01620000000014 76.57038000000001 L 314.48520000000013 162.05038000000002 C 327.5552000000001 175.19838000000001 336.46520000000015 184.07038000000003 352.5242000000001 193.89838000000003 C 324.2622000000001 245.47638000000003 335.1022000000001 257.53538000000003 352.5632630000001 308.78838 C 358.97736300000014 328.14738 388.4382630000001 318.37428 382.0162630000001 299.04618 C 365.1682630000001 249.53817999999998 355.1962630000001 244.20218 386.6803630000001 197.15618 C 392.4264630000001 189.33978000000002 389.6022630000001 178.01918 380.7623630000001 173.87518 C 380.6451730000001 173.820493 341.2743630000001 156.57818 327.6493630000001 124.43418 C 320.57906300000013 107.78618 334.1181630000001 102.88318 348.3133630000001 108.95718 C 376.5433630000001 121.01617999999999 406.2863630000001 147.16018 426.9693630000001 178.18018 C 459.7113630000001 227.28518 481.6493630000001 255.85218 476.42236300000013 292.56018 z" stroke-linecap="round" />
</g>
</svg>