<?xml version="1.0" encoding="UTF-8" standalone="no" ?>
<!DOCTYPE svg PUBLIC "-//W3C//DTD SVG 1.1//EN" "http://www.w3.org/Graphics/SVG/1.1/DTD/svg11.dtd">
<svg xmlns="http://www.w3.org/2000/svg" xmlns:xlink="http://www.w3.org/1999/xlink" version="1.1" width="1080" height="1080" viewBox="0 0 1080 1080" xml:space="preserve">
<desc>Created with Fabric.js 5.2.4</desc>
<defs>
</defs>
<g transform="matrix(1 0 0 1 540 540)" id="b741de90-134c-47d4-9952-c60c2b7a479d"  >
<rect style="stroke: none; stroke-width: 1; stroke-dasharray: none; stroke-linecap: butt; stroke-dashoffset: 0; stroke-linejoin: miter; stroke-miterlimit: 4; fill: rgb(255,255,255); fill-rule: nonzero; opacity: 1; visibility: hidden;" vector-effect="non-scaling-stroke"  x="-540" y="-540" rx="0" ry="0" width="1080" height="1080" />
</g>
<g transform="matrix(1 0 0 1 540 540)" id="8da3a862-87e1-40da-a48e-f8a9dd3216a6"  >
</g>
<g transform="matrix(1.33 0 0 1.33 540 540)"  >
<path style="stroke: none; stroke-width: 1; stroke-dasharray: none; stroke-linecap: butt; stroke-dashoffset: 0; stroke-linejoin: miter; stroke-miterlimit: 4; fill: rgb(0,0,0); fill-rule: nonzero; opacity: 1;" vector-effect="non-scaling-stroke"  transform=" translate(-349.91, -279.85)" d="M 602.5 202.38 C 557.254 199.13389999999998 527.797 192.302 509.43 180.37199999999999 C 515.2777 160.12199999999999 523.813 140.73899999999998 534.797 122.75099999999998 C 536.2697000000001 120.18069999999997 535.9689000000001 116.96579999999997 534.047 114.71579999999997 C 532.1251 112.46579999999997 528.9923 111.66889999999998 526.2267 112.72359999999998 C 511.97270000000003 118.33689999999997 497.4107000000001 123.12559999999998 482.60570000000007 127.05959999999997 C 482.7346100000001 104.60659999999997 485.76590000000004 82.26659999999998 491.6213000000001 60.59059999999998 C 492.4064600000001 57.65309999999998 491.20724000000007 54.54369999999998 488.6525000000001 52.89529999999998 C 486.09780000000006 51.246899999999975 482.7697000000001 51.43829999999998 480.4220000000001 53.36404999999998 C 443.40600000000006 81.64504999999997 416.0780000000001 96.54004999999998 393.9020000000001 100.23504999999997 L 393.8980940000001 100.23504999999997 C 384.20669400000014 81.14104999999998 377.23409400000014 60.786049999999975 373.17909400000013 39.758049999999976 C 372.4876840000001 36.92994999999998 370.12829400000015 34.816649999999974 367.24159400000013 34.43774999999998 C 364.3548940000001 34.01977999999998 361.51889400000016 35.48074999999998 360.1868940000001 38.07444999999998 C 351.7884940000001 53.69944999999998 344.0028940000001 66.91444999999997 336.5538940000001 78.05844999999998 C 321.8118940000001 61.74944999999998 309.15189400000014 43.67544999999998 298.86589400000014 24.242449999999977 C 297.42839400000014 21.715149999999976 294.5767940000001 20.33624999999998 291.7017940000001 20.785449999999976 C 288.8267940000001 21.234669999999976 286.5298940000001 23.414349999999978 285.9322940000001 26.262049999999977 C 275.6272940000001 75.48504999999997 264.5962940000001 106.50804999999997 250.09229400000012 125.27004999999997 C 229.47929400000012 118.89114999999997 209.9402940000001 109.45004999999998 192.13129400000014 97.27004999999997 C 189.61569400000013 95.65284999999997 186.35789400000013 95.80914999999997 184.01019400000013 97.66066999999997 C 181.84219400000012 99.57086999999997 181.04539400000013 102.60206999999997 181.99459400000012 105.33256999999996 C 187.24069400000013 120.17656999999996 191.65479400000012 135.30156999999997 195.20959400000012 150.63756999999995 C 172.81159400000013 149.88365999999996 150.62359400000014 146.00086999999996 129.29959400000013 139.10256999999996 C 126.42849400000013 138.25100999999995 123.33869400000013 139.33303999999995 121.62769400000013 141.79006999999996 C 119.94019400000013 144.21196999999995 119.94019400000013 147.43066999999996 121.62769400000013 149.85256999999996 C 150.01869400000012 190.00456999999994 165.69769400000013 219.90756999999996 167.93969400000015 246.00456999999994 C 148.58469400000016 258.8565699999999 127.58069400000014 269.02756999999997 105.49869400000014 276.24256999999994 C 102.81899400000015 277.31676999999996 101.06119400000014 279.91056999999995 101.06119400000014 282.79726999999997 C 101.06119400000014 285.68397 102.81899400000015 288.27777 105.49869400000014 289.34806999999995 C 118.88169400000014 294.6058699999999 131.96769400000014 300.58606999999995 144.69769400000013 307.27007 C 129.41669400000012 323.64907 112.42469400000013 338.34806999999995 94.01769400000012 351.11807 C 91.45519400000012 352.76646999999997 90.25209400000011 355.88367 91.04499400000012 358.82507 C 91.83796400000011 361.77036999999996 94.44729400000011 363.86026999999996 97.49029400000012 363.99697 C 145.5952940000001 368.75867 177.7362940000001 376.82097 198.29029400000013 393.22697 C 195.15359400000014 417.07497 189.05589400000014 440.43797 180.14529400000012 462.78197 C 179.16873400000011 465.57497 180.04373400000011 468.68427 182.33279400000012 470.55927 C 184.62579400000013 472.43817 187.8444940000001 472.68427 190.39139400000013 471.18036 C 202.31739400000012 463.77806 214.74339400000014 457.20736 227.57939400000015 451.52436 C 230.20829400000014 474.52436 230.56379400000014 497.72736 228.64189400000015 520.79736 C 228.46220400000016 523.7582600000001 230.16529400000016 526.51216 232.89579400000014 527.66846 C 235.62629400000014 528.82466 238.79029400000013 528.13721 240.79419400000015 525.94966 C 273.05219400000016 490.66866 297.46619400000014 473.36366 320.48219400000016 469.94966 C 336.02119400000015 489.00466 349.50219400000015 509.65265999999997 360.68919400000016 531.54766 C 361.9157940000002 533.8132599999999 364.27509400000014 535.22736 366.84939400000013 535.2429599999999 L 367.80251400000014 535.2429599999999 C 370.64631400000013 534.71562 372.8728140000001 532.4890599999999 373.4002140000001 529.6452599999999 C 376.3221140000001 516.5242599999999 380.0604140000001 503.59825999999987 384.6032140000001 490.9502599999999 C 403.1112140000001 504.8562599999999 420.4702140000001 520.2312599999999 436.51321400000006 536.9272599999999 C 437.83351400000004 538.2475599999999 439.62651400000004 538.99366 441.49761400000006 538.9975599999999 C 442.48199400000004 538.9858409999999 443.45461400000005 538.7788099999999 444.35311400000006 538.3803699999999 C 446.91561400000006 537.2905699999999 448.58751400000006 534.7826699999998 448.61091400000004 531.9975699999999 C 445.75541400000003 485.79856999999987 449.67341400000004 456.5635699999999 461.65791400000006 437.8605699999999 C 484.47391400000004 441.22386999999986 506.82991400000003 447.18086999999986 528.2989140000001 455.6145699999999 C 531.0958140000001 456.5872299999999 534.201214 455.7122259999999 536.076214 453.4231699999999 C 537.9551140000001 451.1340699999999 538.201214 447.91536999999994 536.697304 445.3645699999999 C 529.353504 433.4735699999999 522.842304 421.0875699999999 517.209304 408.2945699999999 C 540.295304 405.5757699999999 563.5963039999999 405.1812699999999 586.764304 407.1187699999999 C 589.717404 407.31407999999993 592.471304 405.6031699999999 593.596304 402.86096999999995 C 594.760404 400.13827 594.0884940000001 396.97817 591.916604 394.96646999999996 C 558.764604 364.56046999999995 541.518604 341.31846999999993 536.924604 320.26347 C 555.5186040000001 307.88446999999996 575.4756040000001 297.68147 596.3936040000001 289.85346999999996 C 599.077204 288.79876999999993 600.8233040000001 286.18546999999995 600.764704 283.30267 C 600.7256420000001 280.41206999999997 598.928804 277.83786999999995 596.2256040000001 276.80656999999997 C 583.0106040000001 271.92767 570.073604 266.31856999999997 557.4756040000001 260.00557 C 572.2726040000001 243.29056999999997 588.6866040000001 228.07957 606.4756040000001 214.59157 C 608.6514040000001 212.80637 609.534204 209.88846999999998 608.7139040000001 207.19707 C 607.8271840000001 204.47047 605.3623040000001 202.56037 602.4991040000001 202.38067 z M 522.59 393.23 C 527.2384000000001 383.20300000000003 527.6838 371.726 523.8205 361.367 C 522.92597 359.0701 521.8596 356.8397 520.6291 354.7029 C 523.9885 348.6717 526.1018 342.0229 526.8439 335.1599 C 533.6759 352.4059 547.2269 370.8319 568.7309 392.2219 C 553.3439000000001 391.52268 537.9299 391.86252 522.5899000000001 393.2297 z M 338.80000000000007 469.785 C 350.9720000000001 471.9569 362.58900000000006 476.5428 372.96000000000004 483.281 C 369.99120000000005 491.0662 367.3584 499.746 364.56160000000006 509.433 L 364.5576940000001 509.433 C 356.8545940000001 495.663 348.24869400000006 482.417 338.7996940000001 469.78499999999997 z M 329.9523000000001 455.113 L 328.4406000000001 455.113 C 302.06160000000006 455.61691 276.0776000000001 470.398 243.60060000000007 502.879 C 245.05760000000006 458.641 240.52250000000006 427.055 226.79960000000008 404.262 L 226.79960000000008 404.265906 C 235.52620000000007 407.512006 244.76060000000007 409.183906 254.0696000000001 409.19170599999995 C 260.29230000000007 409.19170599999995 266.4916000000001 408.476866 272.5496000000001 407.06280599999997 C 289.33460000000014 428.41480599999994 313.8736000000001 442.27780599999994 340.8226000000001 445.63280599999996 C 367.77560000000005 448.98830599999997 394.9636000000001 441.566406 416.4706000000001 424.98480599999994 C 427.8336000000001 429.85980599999994 440.5996000000001 430.35980599999994 452.31060000000014 426.3832059999999 C 438.53360000000015 445.1992059999999 432.70860000000016 472.8092059999999 433.71660000000014 514.7502059999999 C 396.25560000000013 478.46520599999997 363.38060000000013 455.11320599999993 329.78660000000013 455.11320599999993 z M 167.0423000000001 263.203 C 164.92120000000008 275.11699999999996 160.0931000000001 286.383 152.9333000000001 296.133 C 144.92550000000008 291.7072 136.1323000000001 287.3986 126.39030000000008 283.08599999999996 L 126.38639400000008 283.082094 C 140.47639400000008 277.61729399999996 154.07739400000008 270.969094 167.0423940000001 263.20309399999996 z M 143.5813000000001 157.47299999999996 C 173.31530000000012 164.69569999999996 196.2763000000001 166.43389999999997 214.9253000000001 163.07459999999995 L 214.9253000000001 163.07069299999995 C 196.2183000000001 181.30869299999995 185.6753000000001 206.33269299999995 185.6913000000001 232.45769299999995 C 185.6913000000001 247.48069299999995 189.1171000000001 262.30569299999996 195.7143000000001 275.80169299999994 C 182.1553000000001 290.5356929999999 174.60530000000008 309.81769299999996 174.5463000000001 329.84069299999993 C 174.48770700000009 343.58269299999995 178.03850000000008 357.10269299999993 184.8513000000001 369.03969299999994 C 162.9133000000001 360.21939299999997 139.8353000000001 354.56269299999997 116.30830000000009 352.23869299999996 C 195.49230000000009 289.40669299999996 201.76530000000008 244.99869299999995 143.58130000000008 157.46869299999994 z M 459.5313000000001 213.75399999999996 C 461.0391000000001 215.15629999999996 463.0860000000001 215.83209999999997 465.1329000000001 215.60169999999997 C 465.9727400000001 215.54310699999996 466.81260000000015 215.54310699999996 467.6524000000001 215.60169999999997 C 479.5354000000001 215.60169999999997 490.9294000000001 220.32049999999995 499.3324000000001 228.72269999999997 C 507.7308000000001 237.12499999999997 512.4534000000001 248.51969999999997 512.4534000000001 260.39869999999996 C 512.5119940000001 271.7107 508.1956000000001 282.60569999999996 500.4104000000001 290.8087 C 497.98070000000007 293.7501 498.3284000000001 298.0899 501.1955600000001 300.60949999999997 C 505.6955600000001 304.6876 509.1330600000001 309.80089999999996 511.21856000000014 315.50449999999995 C 515.5896600000001 327.27449999999993 513.9607600000002 340.43449999999996 506.8513600000001 350.78549999999996 C 505.0583600000001 353.25429999999994 505.0583600000001 356.60189999999994 506.8513600000001 359.07069999999993 C 512.2263600000001 366.01989999999995 513.9490600000001 375.11769999999996 511.4919600000001 383.5476999999999 C 509.03106000000014 391.97739999999993 502.6833600000001 398.7236999999999 494.4219600000001 401.6886999999999 C 487.2657600000001 404.29029999999995 479.3599600000001 403.8644999999999 472.5239600000001 400.51289999999995 C 469.6606600000001 399.0636999999999 466.1801600000001 399.78633999999994 464.1255600000001 402.24729999999994 C 460.0708600000001 407.00899999999996 454.8638600000001 410.65349999999995 449.00456000000014 412.83329999999995 C 439.1647600000001 416.4660999999999 428.23456000000016 415.64579999999995 419.0435600000001 410.59499999999997 C 416.5005600000001 409.20829999999995 413.37166000000013 409.52079999999995 411.14906000000013 411.37624999999997 C 392.14106000000015 427.48524999999995 367.24706000000015 434.88025 342.52406000000013 431.75924999999995 C 317.80506000000014 428.6420499999999 295.52806000000015 415.29425 281.1180600000001 394.97024999999996 C 279.8133600000001 393.17334999999997 277.73916000000014 392.09135 275.5164600000001 392.05614999999995 C 274.8289600000001 391.97802399999995 274.13366000000013 391.97802399999995 273.44616000000013 392.05614999999995 C 267.2430600000001 393.97024999999996 260.7861600000001 394.93504999999993 254.29416000000015 394.91164999999995 C 236.71616000000014 394.84914999999995 219.90316000000016 387.72804999999994 207.62216000000015 375.15364999999997 C 195.34116000000014 362.57565 188.62216000000015 345.59864999999996 188.97416000000015 328.02464999999995 C 189.32963000000015 310.45064999999994 196.72026000000017 293.75464999999997 209.49416000000016 281.68064999999996 C 211.85356000000016 279.46584999999993 212.38476000000017 275.92285 210.78326000000015 273.11424999999997 C 196.25226000000015 247.23924999999997 196.52526000000015 215.60224999999997 211.50201000000015 189.98524999999995 C 226.47501000000017 164.36824999999996 253.90801000000016 148.60624999999996 283.58401000000015 148.56724999999994 C 300.66601000000014 148.54771899999994 317.33801000000017 153.83284999999995 331.29501000000016 163.68824999999995 C 334.2247100000002 165.54764999999995 338.06841000000014 165.00074999999995 340.36531000000014 162.39914999999996 C 352.69731000000013 146.42614999999995 371.76331000000016 137.11014999999998 391.9433100000001 137.20014999999995 C 409.3573100000001 137.23139999999995 426.0523100000001 144.16894999999994 438.3573100000001 156.49714999999995 C 450.6623100000001 168.82114999999996 457.5723100000001 185.52814999999995 457.5723100000001 202.94614999999993 L 457.5723100000001 208.04384999999994 L 457.5723100000001 208.03994299999994 C 457.31450000000007 210.14544299999994 458.03715000000005 212.25084299999995 459.53321000000005 213.75474299999993 z M 239.2313000000001 136.64099999999996 C 237.0790000000001 138.43009999999995 234.79770000000008 140.05899999999997 232.3993000000001 141.51209999999998 C 225.2274000000001 145.74259999999998 217.2943000000001 148.51989999999998 209.0473000000001 149.68789999999998 C 206.9770000000001 140.1137 204.2309000000001 129.86389999999997 200.87150000000008 118.77789999999999 C 213.04750000000007 125.96929999999999 225.89450000000008 131.95389999999998 239.2305000000001 136.6409 z M 210.7273000000001 405.72099999999995 C 217.5632000000001 415.1507 222.3833000000001 425.881 224.8953000000001 437.24799999999993 C 216.2156000000001 440.8924999999999 207.7273000000001 444.9862999999999 199.4733000000001 449.51399999999995 C 204.3249000000001 435.22099999999995 208.08660000000012 420.58399999999995 210.7273000000001 405.72099999999995 z M 472.6373000000001 425.09999999999997 C 476.3561000000001 422.04529999999994 480.4146000000001 419.43199999999996 484.7313000000001 417.3148 C 489.67660000000006 417.361675 494.5868000000001 416.52964 499.2353000000001 414.84999999999997 C 500.82510000000013 414.23281 502.3798000000001 413.52189999999996 503.8837000000001 412.7211 C 507.0204000000001 420.05699999999996 510.7704000000001 427.7831 515.0827 436.1271 L 515.0866060000001 436.13100599999996 C 501.2236060000001 431.420106 487.0356060000001 427.732606 472.63760600000006 425.10000599999995 z M 548.6293000000001 271.54999999999995 C 556.4691 275.58119999999997 565.4303000000001 279.61249999999995 574.9493000000001 283.64799999999997 C 561.3833000000001 289.37069999999994 548.2773000000001 296.128 535.7503000000002 303.86299999999994 C 537.2230000000002 292.17199999999997 541.6565000000002 281.05099999999993 548.6293000000002 271.55099999999993 z M 521.6913000000001 305.15199999999993 C 519.9101 301.4996999999999 517.6913000000001 298.0777999999999 515.0858000000001 294.96099999999996 C 522.6210000000001 284.871 526.6678 272.60599999999994 526.6208 260.01599999999996 C 526.538769 245.12099999999995 520.8122000000001 230.81299999999996 510.5978 219.97299999999996 C 500.3788 209.13299999999995 486.4338 202.57099999999997 471.5708 201.60999999999996 C 471.21924 180.71199999999996 462.6802 160.78999999999996 447.7858 146.12599999999995 C 432.8948 131.46599999999995 412.8408 123.23499999999996 391.9418 123.20799999999994 C 369.6878 123.15331199999994 348.4538 132.51269999999994 333.4768 148.96999999999994 C 310.69980000000004 135.02099999999993 283.1368 131.20399999999995 257.4298 138.44299999999996 C 275.4068 118.05999999999996 286.5508 86.47399999999996 295.7888 46.60299999999995 C 321.3828 88.09899999999996 344.0618 108.48199999999994 369.9878 113.80199999999995 C 397.9878 119.40359999999995 428.5618 108.20039999999995 474.14779999999996 75.72399999999995 C 464.7376 123.20799999999994 467.597 153.55999999999995 483.16339999999997 174.78599999999994 C 499.62839999999994 197.18399999999994 529.4214 209.28199999999995 583.9634 214.82499999999993 C 541.3464 250.60999999999993 523.0334 277.4889999999999 521.6904 305.3759999999999 z M 372.7913000000001 100.08199999999994 C 363.3851000000001 97.97259999999994 354.6033000000001 93.69919999999993 347.14330000000007 87.59799999999994 C 352.7449000000001 79.30889999999994 358.3423000000001 70.18399999999994 363.94430000000006 60.324999999999946 C 367.58880000000005 74.25499999999994 372.53810000000004 87.80899999999994 378.72530000000006 100.81299999999995 C 376.70970000000005 100.81299999999995 374.7526000000001 100.47705999999995 372.79170000000005 100.08252999999995 z M 497.7213000000001 170.47699999999992 C 496.5455000000001 169.21529999999993 495.4401000000001 167.88719999999992 494.4205000000001 166.50039999999993 C 489.1744000000001 158.92619999999994 485.74470000000014 150.24639999999994 484.39350000000013 141.13339999999994 C 493.5224000000001 138.89509999999993 503.32350000000014 135.98109999999994 514.0735000000001 132.23109999999994 L 514.0735000000001 132.22719399999994 C 507.4876000000001 144.46119399999995 502.01450000000006 157.26219399999994 497.7215000000001 170.47719399999994 z" stroke-linecap="round" />
</g>
</svg>