<?xml version="1.0" encoding="UTF-8" standalone="no" ?>
<!DOCTYPE svg PUBLIC "-//W3C//DTD SVG 1.1//EN" "http://www.w3.org/Graphics/SVG/1.1/DTD/svg11.dtd">
<svg xmlns="http://www.w3.org/2000/svg" xmlns:xlink="http://www.w3.org/1999/xlink" version="1.1" width="1080" height="1080" viewBox="0 0 1080 1080" xml:space="preserve">
<desc>Created with Fabric.js 5.2.4</desc>
<defs>
</defs>
<rect x="0" y="0" width="100%" height="100%" fill="transparent"></rect>
<g transform="matrix(1 0 0 1 540 540)" id="dbf05b1b-de2d-4fa9-94b2-61221e6dd01d"  >
<rect style="stroke: none; stroke-width: 1; stroke-dasharray: none; stroke-linecap: butt; stroke-dashoffset: 0; stroke-linejoin: miter; stroke-miterlimit: 4; fill: rgb(255,255,255); fill-rule: nonzero; opacity: 1; visibility: hidden;" vector-effect="non-scaling-stroke"  x="-540" y="-540" rx="0" ry="0" width="1080" height="1080" />
</g>
<g transform="matrix(1 0 0 1 540 540)" id="61dc6980-b094-4ec8-a6f2-4a90389662b0"  >
</g>
<g transform="matrix(1 0 0 1 540 540)"  >
<g style="" vector-effect="non-scaling-stroke"   >
		<g transform="matrix(1 0 0 1 0 0)"  >
<rect style="stroke: none; stroke-width: 1; stroke-dasharray: none; stroke-linecap: butt; stroke-dashoffset: 0; stroke-linejoin: miter; stroke-miterlimit: 4; fill: rgb(255,255,255); fill-rule: nonzero; opacity: 1; visibility: hidden;" vector-effect="non-scaling-stroke"  x="-540" y="-540" rx="0" ry="0" width="1080" height="1080" />
</g>
		<g transform="matrix(1.33 0 0 1.33 0 0)"  >
<path style="stroke: none; stroke-width: 1; stroke-dasharray: none; stroke-linecap: butt; stroke-dashoffset: 0; stroke-linejoin: miter; stroke-miterlimit: 4; fill: rgb(0,0,0); fill-rule: nonzero; opacity: 1;" vector-effect="non-scaling-stroke"  transform=" translate(-343.89, -280.02)" d="M 212.91 184.31 C 213.035 178.0131 209.2928 172.267 203.4881 169.806 C 197.67170000000002 167.35680000000002 190.9531 168.66150000000002 186.5041 173.13410000000002 C 184.19549999999998 175.44270000000003 182.2814 177.32940000000002 180.6135 178.9505 C 177.4768 182.0286 175.16819999999998 184.3099 173.1721 186.5443 C 132.2501 231.2903 114.54310000000001 285.3923 117.4611 356.7743 C 121.4611 457.61429999999996 204.4691 538.9543 319.3011 554.5543 C 328.34020000000004 555.7809 337.6211 556.4059 346.8831 556.4059 C 438.7581 556.4059 527.3131000000001 497.16389999999996 557.4531 415.54589999999996 C 592.5861 320.54189999999994 556.2538999999999 223.90589999999997 462.60909999999996 163.35589999999996 L 455.0388 158.48869999999997 C 435.7338 146.13369999999998 417.4998 134.45369999999997 402.82779999999997 119.30869999999996 C 378.9568 94.74269999999996 370.2188 71.27769999999995 375.33979999999997 45.52369999999996 C 376.08588999999995 41.78929999999996 377.40619999999996 37.75809999999996 379.06249999999994 32.67569999999996 C 379.97265999999996 29.902299999999965 380.95309999999995 26.913999999999962 381.9608999999999 23.609299999999962 C 383.78899999999993 17.609299999999962 381.8202799999999 11.109299999999962 376.95699999999994 7.140299999999961 C 372.10149999999993 3.163699999999961 365.33199999999994 2.5230999999999604 359.83199999999994 5.480099999999961 C 243.47199999999992 68.17509999999996 237.13199999999995 184.32009999999997 248.60199999999992 276.60009999999994 C 225.2189999999999 257.39309999999995 212.3089999999999 218.94409999999993 212.91099999999992 184.30309999999994 z M 264.844 318.09000000000003 C 269.85179999999997 319.1603 275.05899999999997 317.69547000000006 278.75 314.1564 C 282.4531 310.6252 284.1719 305.4923 283.3281 300.4374 C 269.5191 216.88640000000004 265.1801 116.20740000000004 343.1601 53.37740000000002 C 341.1796 84.19740000000002 353.5231 112.93640000000002 380.6371 140.84240000000003 C 397.80109999999996 158.54540000000003 418.42609999999996 171.75240000000002 438.3671 184.53340000000003 L 445.8319 189.31460000000004 C 526.6249 241.57260000000005 558.2819000000001 324.1546000000001 528.4409 404.8346 C 502.63590000000005 474.7486 426.2909000000001 525.4746 346.89090000000004 525.4746 C 339.00810000000007 525.4746 331.1179 524.94726 323.46490000000006 523.9121 C 222.18490000000006 510.1541 151.81490000000005 442.4861 148.36490000000006 355.5221 C 146.08370000000005 299.7491 157.79850000000008 256.34610000000004 185.16590000000008 220.36210000000003 C 193.95890000000009 266.2491 220.77090000000007 308.6671 264.8459000000001 318.08910000000003 z" stroke-linecap="round" />
</g>
</g>
</g>
</svg>