<?xml version="1.0" encoding="UTF-8" standalone="no" ?>
<!DOCTYPE svg PUBLIC "-//W3C//DTD SVG 1.1//EN" "http://www.w3.org/Graphics/SVG/1.1/DTD/svg11.dtd">
<svg xmlns="http://www.w3.org/2000/svg" xmlns:xlink="http://www.w3.org/1999/xlink" version="1.1" width="1080" height="1080" viewBox="0 0 1080 1080" xml:space="preserve">
<desc>Created with Fabric.js 5.2.4</desc>
<defs>
</defs>
<rect x="0" y="0" width="100%" height="100%" fill="transparent"></rect>
<g transform="matrix(1 0 0 1 540 540)" id="dbf05b1b-de2d-4fa9-94b2-61221e6dd01d"  >
<rect style="stroke: none; stroke-width: 1; stroke-dasharray: none; stroke-linecap: butt; stroke-dashoffset: 0; stroke-linejoin: miter; stroke-miterlimit: 4; fill: rgb(255,255,255); fill-rule: nonzero; opacity: 1; visibility: hidden;" vector-effect="non-scaling-stroke"  x="-540" y="-540" rx="0" ry="0" width="1080" height="1080" />
</g>
<g transform="matrix(1 0 0 1 540 540)" id="61dc6980-b094-4ec8-a6f2-4a90389662b0"  >
</g>
<g transform="matrix(1 0 0 1 540 540)"  >
<g style="" vector-effect="non-scaling-stroke"   >
		<g transform="matrix(1 0 0 1 -490 -490)"  >
<rect style="stroke: none; stroke-width: 1; stroke-dasharray: none; stroke-linecap: butt; stroke-dashoffset: 0; stroke-linejoin: miter; stroke-miterlimit: 4; fill: rgb(255,255,255); fill-opacity: 0; fill-rule: nonzero; opacity: 1;" vector-effect="non-scaling-stroke"  x="-50" y="-50" rx="0" ry="0" width="100" height="100" />
</g>
		<g transform="matrix(1 0 0 1 0 0)"  >
<rect style="stroke: none; stroke-width: 1; stroke-dasharray: none; stroke-linecap: butt; stroke-dashoffset: 0; stroke-linejoin: miter; stroke-miterlimit: 4; fill: rgb(255,255,255); fill-rule: nonzero; opacity: 1; visibility: hidden;" vector-effect="non-scaling-stroke"  x="-540" y="-540" rx="0" ry="0" width="1080" height="1080" />
</g>
		<g transform="matrix(1.33 0 0 1.33 0 0.01)"  >
<path style="stroke: none; stroke-width: 1; stroke-dasharray: none; stroke-linecap: butt; stroke-dashoffset: 0; stroke-linejoin: miter; stroke-miterlimit: 4; fill: rgb(0,0,0); fill-rule: nonzero; opacity: 1;" vector-effect="non-scaling-stroke"  transform=" translate(-339.42, -276.39)" d="M 513.99 64.82 L 364.5 66.49969999999999 C 354.133 66.61688999999998 344.137 69.6638 335.555 75.08949999999999 L 266.43 93.89049999999999 C 266.17219 93.96471899999999 265.91438 94.04283999999998 265.66438 94.13268999999998 L 242.05938 102.33188999999999 L 242.047661 102.30845299999999 L 241.922661 102.37485899999999 L 239.207861 103.31626899999999 C 232.504761 105.644369 226.395861 109.21466899999999 221.129861 113.773269 L 200.797861 124.918269 L 186.85286100000002 132.683869 L 186.63020100000003 132.38308899999998 L 184.41140100000004 134.04718899999997 L 177.59500100000005 137.84018899999998 C 171.56770100000006 141.19958899999997 166.28300100000004 145.62928899999997 161.95000100000004 150.860189 L 126.65300100000005 177.27418899999998 C 126.55144100000004 177.34840699999998 126.46159100000004 177.41871899999998 126.36784100000004 177.49684899999997 C 114.82084100000004 186.72734899999998 107.56684100000004 199.89484899999997 105.93384100000004 214.57484899999997 C 104.32054100000005 229.10184899999996 108.39084100000004 243.39084899999997 117.41784100000004 254.85984899999997 L 260.75784100000004 466.4998489999999 C 260.92190100000005 466.7420389999999 261.10550100000006 466.98031899999995 261.28909100000004 467.2185989999999 C 272.52709100000004 481.28059899999994 289.27709100000004 488.38659899999993 306.01209100000005 487.94859899999994 C 317.5710910000001 487.64000899999996 329.12109100000004 483.73769899999996 338.8520910000001 476.0145989999999 L 378.57909100000006 446.7335989999999 L 423.4460910000001 438.2647989999999 L 446.34109100000006 433.96789899999993 L 446.22390100000007 435.76089899999994 L 518.6259010000001 437.7647989999999 C 518.9188710000001 437.7530799999999 519.1962110000001 437.7491739999999 519.4891810000001 437.7413609999999 C 549.5121810000002 436.9523009999999 573.5871810000001 409.0423609999999 573.2511810000001 378.9913609999999 L 569.9699810000001 120.93136099999992 C 569.6262310000001 90.42736099999992 544.4929810000001 64.49036099999992 513.9929810000001 64.82636099999993 z M 228.74 139.832 C 230.2673 137.039 232.197 134.5195 234.42360000000002 132.3242 L 251.15760000000003 123.1523 L 259.50530000000003 120.25 C 255.09120000000004 130.34 253.72010000000003 141.625 255.77480000000003 152.594 L 299.5948 405.044 L 226.62580000000003 166.694 C 226.58673800000003 166.56118999999998 226.53986200000003 166.43228 226.49689000000004 166.29165999999998 C 223.46959000000004 157.57685999999998 224.28599000000003 147.93265999999997 228.73909000000003 139.83065999999997 z M 309.80600000000004 122.449 L 312.6498 347.809 L 278.0758 148.64900000000003 C 278.064081 148.59431300000003 278.052362 148.53572000000003 278.040643 148.48103000000003 C 276.349243 139.50443000000004 278.521113 130.15703000000002 284.005443 122.83303000000004 C 288.903843 116.28613000000004 296.04044300000004 111.84103000000003 304.087443 110.32103000000004 L 311.290543 108.96553000000003 C 310.251443 113.33663000000003 309.747543 117.85223000000003 309.806143 122.45353000000003 z M 202.35600000000005 149.984 C 201.55131000000006 157.8512 202.41850000000005 165.886 205.03960000000006 173.51500000000001 L 278.29760000000005 412.81500000000005 L 176.27760000000006 202.63500000000005 C 176.18385000000006 202.44359000000006 176.08229000000006 202.25609000000006 175.98072000000008 202.06859000000006 C 171.41822000000008 193.86939000000007 170.59792000000007 184.08059000000006 173.75802000000007 175.21659000000005 C 174.78922000000009 172.32209000000006 176.21112000000008 169.61499000000006 177.96892000000008 167.16189000000006 L 196.7619200000001 153.09589000000005 z M 135.40700000000004 241.086 C 129.95390000000003 234.26960000000003 127.48900000000003 225.746 128.45780000000005 217.078 C 129.41092000000006 208.4647 133.65310000000005 200.738 140.39180000000005 195.289 L 149.29410000000004 188.62879999999998 C 149.65738000000005 197.0116 151.91910000000004 205.28879999999998 156.03630000000004 212.78879999999998 L 256.56630000000007 419.9088 L 135.94630000000006 241.8088 C 135.77442000000008 241.56270999999998 135.59864000000007 241.32052 135.41505000000006 241.08614 z M 550.527 376.456 C 550.72231 394.19800000000004 536.4720000000001 409.011 518.7460000000001 409.476 L 368.7360000000001 411.1791 C 350.7200000000001 411.37441 335.9040000000001 396.8821 335.70100000000014 378.86310000000003 L 332.46270000000015 122.19310000000002 C 332.37676300000015 114.97430000000001 334.61890000000017 108.10310000000001 338.92360000000014 102.33010000000002 C 339.5017300000001 101.54104000000001 340.09550000000013 100.81060000000002 340.66970000000015 100.16210000000001 C 346.74390000000017 93.3144 355.11870000000016 89.4081 364.24370000000016 89.1701 L 514.2537000000002 87.4787 C 532.2697000000002 87.27558 547.0937000000002 101.77170000000001 547.2887000000002 119.7947 z" stroke-linecap="round" />
</g>
</g>
</g>
</svg>