<?xml version="1.0" encoding="UTF-8" standalone="no" ?>
<!DOCTYPE svg PUBLIC "-//W3C//DTD SVG 1.1//EN" "http://www.w3.org/Graphics/SVG/1.1/DTD/svg11.dtd">
<svg xmlns="http://www.w3.org/2000/svg" xmlns:xlink="http://www.w3.org/1999/xlink" version="1.1" width="1080" height="1080" viewBox="0 0 1080 1080" xml:space="preserve">
<desc>Created with Fabric.js 5.2.4</desc>
<defs>
</defs>
<rect x="0" y="0" width="100%" height="100%" fill="transparent"></rect>
<g transform="matrix(1 0 0 1 540 540)" id="dbf05b1b-de2d-4fa9-94b2-61221e6dd01d"  >
<rect style="stroke: none; stroke-width: 1; stroke-dasharray: none; stroke-linecap: butt; stroke-dashoffset: 0; stroke-linejoin: miter; stroke-miterlimit: 4; fill: rgb(255,255,255); fill-rule: nonzero; opacity: 1; visibility: hidden;" vector-effect="non-scaling-stroke"  x="-540" y="-540" rx="0" ry="0" width="1080" height="1080" />
</g>
<g transform="matrix(1 0 0 1 540 540)" id="61dc6980-b094-4ec8-a6f2-4a90389662b0"  >
</g>
<g transform="matrix(1.33 0 0 1.33 540 540)"  >
<path style="stroke: none; stroke-width: 1; stroke-dasharray: none; stroke-linecap: butt; stroke-dashoffset: 0; stroke-linejoin: miter; stroke-miterlimit: 4; fill: rgb(0,0,0); fill-rule: nonzero; opacity: 1;" vector-effect="non-scaling-stroke"  transform=" translate(-349.99, -279.82)" d="M 577.14 224.05 C 577.14 209.93300000000002 558.4639999999999 207.14000000000001 547.6709999999999 204.86200000000002 C 538.6944 202.96750000000003 529.718 201.07680000000002 520.7449999999999 199.18230000000003 C 527.9011999999999 189.12030000000001 535.0569999999999 179.05730000000003 542.2139999999999 168.99130000000002 C 553.6439999999999 152.92130000000003 529.6869999999999 145.07330000000002 517.698 142.43630000000002 C 492.69 136.93630000000002 467.686 131.43630000000002 442.678 125.93230000000001 C 450.6194 114.74830000000001 458.565 103.57330000000002 466.506 92.39330000000001 C 477.61499999999995 76.7523 459.1427 67.96730000000001 445.69 65.01030000000002 C 417.159 58.73690000000001 388.62 52.45930000000001 360.081 46.18230000000001 C 336.34700000000004 40.96350000000001 312.616 35.74430000000001 288.89 30.526300000000013 C 271.445 26.690400000000015 253.08499999999998 30.413020000000014 241.41699999999997 44.12830000000001 C 233.83889999999997 53.03060000000001 226.265 61.94030000000001 218.68299999999996 70.84730000000002 C 195.90999999999997 97.62030000000001 173.13199999999995 124.39430000000002 150.35899999999998 151.16330000000002 C 143.2652 159.50310000000002 136.17499999999998 167.83530000000002 129.08599999999998 176.1673 C 126.69539999999998 178.9798 124.10159999999999 181.77280000000002 123.22269999999999 185.48760000000001 C 120.37109999999998 197.5466 133.9067 204.15160000000003 143.3987 206.5226 C 171.16469999999998 213.44840000000002 198.9297 220.3776 226.6917 227.30360000000002 C 221.0745 233.9052 215.4647 240.50660000000002 209.8477 247.11560000000003 C 203.1875 254.95150000000004 191.9567 264.8856 201.0665 275.42760000000004 C 208.1095 283.57990000000007 220.4415 285.1229 230.4065 287.60360000000003 C 238.969 289.7364 247.53549999999998 291.86530000000005 256.09749999999997 293.9981 C 251.61699999999996 299.07230000000004 247.13269999999997 304.14610000000005 242.65249999999997 309.2131 C 241.1837 310.8772 239.62909999999997 312.4904 238.23449999999997 314.2131 C 232.48839999999996 320.8772 234.68369999999996 329.2751 235.26179999999997 337.3341 C 237.88289999999998 374.0021 240.46879999999996 410.6781 243.05869999999996 447.35409999999996 C 244.07039999999995 461.72509999999994 242.05479999999997 478.0381 257.56669999999997 484.76809999999995 C 262.46119999999996 486.88919999999996 267.95369999999997 487.95949999999993 273.11769999999996 489.29929999999996 C 291.89469999999994 494.1665 310.6646999999999 499.02199999999993 329.43769999999995 503.88129999999995 C 351.39469999999994 509.56489999999997 373.3597 515.2483 395.30869999999993 520.9403 C 421.5426999999999 527.745 457.17169999999993 541.8503 476.0116999999999 513.6551 C 499.4686999999999 478.53809999999993 523.9026999999999 444.02609999999993 547.8596999999999 409.2451 C 555.7854999999998 397.7371 563.7036999999999 386.22209999999995 571.6486999999998 374.7331 C 575.7541999999999 368.7956 575.4728999999999 357.04909999999995 575.4728999999999 357.04909999999995 C 575.4728999999999 357.0373809999999 577.1408999999999 222.46909999999994 577.1408999999999 224.04909999999995 z M 434.73 363.27 C 381.492 350.668 328.25 338.063 275.01 325.465 C 272.2483 324.80875 269.4866 324.16029999999995 266.7288 323.5041 C 265.94363999999996 323.32051 263.1038 322.57051 263.79519999999997 321.7697 C 265.885 319.3713 267.96709999999996 316.9689 270.04909999999995 314.5744 C 271.27959999999996 313.1564 280.77909999999997 300.1874 282.29509999999993 300.5624 C 285.4083999999999 301.33974 288.5177999999999 302.1132 291.6309999999999 302.89050000000003 C 322.2399999999999 310.5233 352.8499999999999 318.1605 383.45899999999995 325.80050000000006 C 401.07599999999996 330.19500000000005 426.38499999999993 331.95670000000007 438.34599999999995 315.12050000000005 C 443.90849999999995 307.29630000000003 449.46299999999997 299.47550000000007 455.02199999999993 291.65150000000006 C 472.8809999999999 266.51450000000006 490.74499999999995 241.37050000000005 508.60799999999995 216.23750000000007 C 508.85018999999994 215.89766000000006 509.7563999999999 214.13590000000008 510.2212999999999 214.23750000000007 C 514.0455 215.05391000000006 517.8697 215.86640000000006 521.6942999999999 216.68280000000007 C 527.5184999999999 217.92110000000008 533.3422999999999 219.16330000000008 539.1672999999998 220.40550000000007 C 542.2297999999998 221.06175000000007 546.3391999999999 221.33519000000007 549.0227999999998 223.10470000000007 C 516.1247999999998 266.67870000000005 483.22179999999986 310.2567000000001 450.32379999999984 353.83470000000005 C 446.10499999999985 359.42850000000004 443.2495999999998 365.27970000000005 434.72979999999984 363.27220000000005 z M 275.35 45.579999999999984 C 282.61170000000004 45.579999999999984 290.65900000000005 48.68159999999998 297.651 50.23229999999998 C 313.421 53.73229999999998 329.194 57.23229999999998 344.963 60.73229999999998 C 374.64300000000003 67.32209999999998 404.33000000000004 73.91629999999998 434.01 80.50529999999998 C 434.52562 80.61857999999998 442.4475 82.64979999999997 442.1741 82.93109999999997 C 410.44010000000003 126.73609999999996 378.69710000000003 170.54409999999996 346.9551 214.34109999999998 C 345.752 216.00519999999997 344.541 217.6692 343.3379 219.3372 C 340.18559999999997 223.6927 335.23629999999997 231.3842 329.4429 231.3842 C 322.6617 231.458419 315.0799 228.2865 308.6069 226.685 C 275.7009 218.5444 242.79489999999998 210.40800000000002 209.8879 202.27100000000002 C 195.8449 198.7983 181.7939 195.3257 167.7469 191.84900000000002 C 166.74300000000002 191.60291 151.5009 188.17710000000002 152.85590000000002 186.556 C 168.45790000000002 167.91500000000002 184.05490000000003 149.27100000000002 199.6569 130.63400000000001 C 215.7469 111.40400000000001 231.8329 92.17700000000002 247.9299 72.95400000000001 C 253.4026 66.4149 258.8709 59.87200000000001 264.3479 53.337 C 267.6526 49.3682 269.5315 45.575300000000006 275.3479 45.575300000000006 z M 253.17400000000004 233.89999999999998 C 266.58400000000006 237.25939999999997 280.002 240.61479999999997 293.41600000000005 243.96999999999997 C 308.50200000000007 247.74339999999998 323.59600000000006 252.82549999999998 339.31800000000004 250.02469999999997 C 349.03280000000007 248.29419999999996 358.58400000000006 244.30199999999996 364.44700000000006 236.04769999999996 C 367.03290000000004 232.41489999999996 369.61500000000007 228.77429999999995 372.20480000000003 225.13369999999998 C 381.98600000000005 211.36369999999997 391.7708 197.5947 401.55280000000005 183.82169999999996 C 409.963 171.98969999999997 418.37680000000006 160.14969999999997 426.7798 148.31369999999995 C 428.4087 146.01679999999996 430.0376 143.72779999999995 431.67040000000003 141.43089999999995 C 432.04149 140.91136999999995 439.13520000000005 143.03639999999996 439.80710000000005 143.18479999999994 C 455.2051000000001 146.60669999999993 470.60810000000004 150.02859999999993 486.00610000000006 153.45079999999993 C 492.93190000000004 154.98989999999992 499.86510000000004 156.52889999999994 506.79510000000005 158.07189999999994 C 507.16619000000003 158.15783799999994 516.9941 160.76719999999995 516.8301 160.92739999999995 C 484.3731 205.73239999999996 451.9081 250.54439999999994 419.44710000000003 295.3574 C 414.69710000000003 301.90819999999997 410.7948 311.3614 400.9671 309.04839999999996 C 394.3304 307.86089999999996 387.73310000000004 305.77889999999996 381.19010000000003 304.15779999999995 C 347.96310000000005 295.9429999999999 314.74510000000004 287.73179999999996 281.52610000000004 279.51679999999993 C 264.91310000000004 275.4112999999999 248.29610000000005 271.3019999999999 231.68210000000005 267.19679999999994 C 230.49070000000006 266.89991999999995 227.31490000000005 266.41945999999996 227.31490000000005 265.19289999999995 C 227.31490000000005 263.09909999999996 232.11960000000005 259.06789999999995 233.38910000000004 257.54839999999996 C 239.97890000000004 249.66559999999996 246.57710000000003 241.78639999999996 253.17410000000004 233.90039999999996 z" stroke-linecap="round" />
</g>
</svg>