<?xml version="1.0" encoding="UTF-8" standalone="no" ?>
<!DOCTYPE svg PUBLIC "-//W3C//DTD SVG 1.1//EN" "http://www.w3.org/Graphics/SVG/1.1/DTD/svg11.dtd">
<svg xmlns="http://www.w3.org/2000/svg" xmlns:xlink="http://www.w3.org/1999/xlink" version="1.1" width="1080" height="1080" viewBox="0 0 1080 1080" xml:space="preserve">
<desc>Created with Fabric.js 5.2.4</desc>
<defs>
</defs>
<rect x="0" y="0" width="100%" height="100%" fill="transparent"></rect>
<g transform="matrix(1 0 0 1 540 540)" id="b741de90-134c-47d4-9952-c60c2b7a479d"  >
<rect style="stroke: none; stroke-width: 1; stroke-dasharray: none; stroke-linecap: butt; stroke-dashoffset: 0; stroke-linejoin: miter; stroke-miterlimit: 4; fill: rgb(255,255,255); fill-rule: nonzero; opacity: 1; visibility: hidden;" vector-effect="non-scaling-stroke"  x="-540" y="-540" rx="0" ry="0" width="1080" height="1080" />
</g>
<g transform="matrix(1 0 0 1 540 540)" id="8da3a862-87e1-40da-a48e-f8a9dd3216a6"  >
</g>
<g transform="matrix(1.33 0 0 1.33 827.69 552.77)"  >
<path style="stroke: none; stroke-width: 1; stroke-dasharray: none; stroke-linecap: butt; stroke-dashoffset: 0; stroke-linejoin: miter; stroke-miterlimit: 4; fill: rgb(0,0,0); fill-rule: nonzero; opacity: 1;" vector-effect="non-scaling-stroke"  transform=" translate(-565.23, -289.01)" d="M 537.04 306.6 C 536.9579689999999 308.20160000000004 536.9579689999999 309.8109 537.04 311.4125 C 554.903 300.26750000000004 573.8059999999999 290.8895 593.4889999999999 283.4125 C 580.012 278.5453 566.8129999999999 272.93550000000005 553.954 266.6155 C 544.2820999999999 277.8535 538.3679999999999 291.8345 537.04 306.5995 z" stroke-linecap="round" />
</g>
<g transform="matrix(1.33 0 0 1.33 256.86 538.36)"  >
<path style="stroke: none; stroke-width: 1; stroke-dasharray: none; stroke-linecap: butt; stroke-dashoffset: 0; stroke-linejoin: miter; stroke-miterlimit: 4; fill: rgb(0,0,0); fill-rule: nonzero; opacity: 1;" vector-effect="non-scaling-stroke"  transform=" translate(-137.12, -278.2)" d="M 166.1 261.57 C 166.38125 259.4997 166.49062 257.3708 166.60390999999998 255.2419 C 148.03391 266.6089 128.25590999999997 275.8709 107.63490999999999 282.85089999999997 C 121.23991 288.24929999999995 134.54890999999998 294.35889999999995 147.50591 301.1629 C 157.20511 289.9129 163.63491 276.2179 166.09991 261.5689 z" stroke-linecap="round" />
</g>
<g transform="matrix(1.33 0 0 1.33 546.39 833.25)"  >
<path style="stroke: none; stroke-width: 1; stroke-dasharray: none; stroke-linecap: butt; stroke-dashoffset: 0; stroke-linejoin: miter; stroke-miterlimit: 4; fill: rgb(0,0,0); fill-rule: nonzero; opacity: 1;" vector-effect="non-scaling-stroke"  transform=" translate(-354.25, -499.38)" d="M 366.8 528.36 C 369.79220000000004 514.825 373.6281 501.48900000000003 378.28000000000003 488.434 C 360.07700000000006 476 344.67800000000005 470.399 330.22900000000004 470.399 C 344.09600000000006 488.61 356.33400000000006 508.004 366.79900000000004 528.36 z" stroke-linecap="round" />
</g>
<g transform="matrix(1.33 0 0 1.33 739.89 740.35)"  >
<path style="stroke: none; stroke-width: 1; stroke-dasharray: none; stroke-linecap: butt; stroke-dashoffset: 0; stroke-linejoin: miter; stroke-miterlimit: 4; fill: rgb(0,0,0); fill-rule: nonzero; opacity: 1;" vector-effect="non-scaling-stroke"  transform=" translate(-499.4, -429.68)" d="M 469.05 430.41 L 468.09687 431.4725 L 468.10077700000005 431.47640700000005 C 489.48377700000003 435.2186070000001 510.452777 441.0311070000001 530.705777 448.83540700000003 C 523.1276770000001 436.538407 516.393777 423.74140700000004 510.545777 410.530407 C 491.619777 414.393707 478.29177699999997 420.55340700000005 469.049777 430.40940700000004 z" stroke-linecap="round" />
</g>
<g transform="matrix(1.33 0 0 1.33 348.66 744.05)"  >
<path style="stroke: none; stroke-width: 1; stroke-dasharray: none; stroke-linecap: butt; stroke-dashoffset: 0; stroke-linejoin: miter; stroke-miterlimit: 4; fill: rgb(0,0,0); fill-rule: nonzero; opacity: 1;" vector-effect="non-scaling-stroke"  transform=" translate(-205.94, -432.49)" d="M 204.4 400.18 C 200.7555 422.27 194.8453 443.926 186.763 464.805 C 199.064 457.2034 211.88400000000001 450.46500000000003 225.122 444.645 C 223.0087 429.567 216.9189 415.32099999999997 207.48100000000002 403.37199999999996 C 206.52788 402.30949999999996 205.5201 401.24309999999997 204.39900000000003 400.18059999999997 z" stroke-linecap="round" />
</g>
<g transform="matrix(1.33 0 0 1.33 750.2 363.22)"  >
<path style="stroke: none; stroke-width: 1; stroke-dasharray: none; stroke-linecap: butt; stroke-dashoffset: 0; stroke-linejoin: miter; stroke-miterlimit: 4; fill: rgb(0,0,0); fill-rule: nonzero; opacity: 1;" vector-effect="non-scaling-stroke"  transform=" translate(-507.11, -146.86)" d="M 503.83 174.44 C 510.11519999999996 155.128 518.631 136.62 529.197 119.28 C 514.763 124.9636 500.009 129.803 485.01300000000003 133.784 C 485.59503 145.167 489.2513 156.179 495.59900000000005 165.647 C 497.9818 168.897 500.74350000000004 171.84619999999998 503.82950000000005 174.44 z" stroke-linecap="round" />
</g>
<g transform="matrix(1.33 0 0 1.33 362 335.46)"  >
<path style="stroke: none; stroke-width: 1; stroke-dasharray: none; stroke-linecap: butt; stroke-dashoffset: 0; stroke-linejoin: miter; stroke-miterlimit: 4; fill: rgb(0,0,0); fill-rule: nonzero; opacity: 1;" vector-effect="non-scaling-stroke"  transform=" translate(-215.96, -126.02)" d="M 243.6 130.7 C 224.053 123.91479999999999 205.471 114.618 188.327 103.03599999999999 C 193.6082 118.10999999999999 198.077 133.458 201.71 149.01299999999998 C 217.52200000000002 148.58330999999998 232.546 142.01689999999996 243.601 130.70099999999996 z" stroke-linecap="round" />
</g>
<g transform="matrix(1.33 0 0 1.33 559.73 261.48)"  >
<path style="stroke: none; stroke-width: 1; stroke-dasharray: none; stroke-linecap: butt; stroke-dashoffset: 0; stroke-linejoin: miter; stroke-miterlimit: 4; fill: rgb(0,0,0); fill-rule: nonzero; opacity: 1;" vector-effect="non-scaling-stroke"  transform=" translate(-364.25, -70.56)" d="M 386.01 99.68 C 377.1545 81.102 370.553 61.532000000000004 366.354 41.38300000000001 C 358.06489999999997 56.84000000000001 350.16999999999996 70.33600000000001 342.49899999999997 81.87100000000001 C 353.36199999999997 92.933 368.104 99.34 383.604 99.73400000000001 z" stroke-linecap="round" />
</g>
<g transform="matrix(1.33 0 0 1.33 540 540)"  >
<path style="stroke: none; stroke-width: 1; stroke-dasharray: none; stroke-linecap: butt; stroke-dashoffset: 0; stroke-linejoin: miter; stroke-miterlimit: 4; fill: rgb(0,0,0); fill-rule: nonzero; opacity: 1;" vector-effect="non-scaling-stroke"  transform=" translate(-350.03, -280.01)" d="M 484.96 58.969 C 442.62399999999997 91.336 410.87 108.137 383.59999999999997 108.137 C 349.998 108.137 323.40099999999995 82.15299999999999 292.59999999999997 27.723 C 273.393 119.563 250.59999999999997 157.70299999999997 194.37699999999995 157.70299999999997 L 194.37309399999995 157.69909299999998 C 171.54109399999996 156.80847299999996 148.93209399999995 152.812393 127.17409399999995 145.82809299999997 C 197.79109399999996 245.78909299999998 192.13509399999995 287.33809299999996 97.99809399999995 356.77809299999996 C 215.59809399999995 368.426093 243.03809399999994 400.34409299999993 235.42809399999996 521.3680929999999 C 271.82609399999996 481.60609299999993 300.27609399999994 462.0630929999999 329.61909399999996 462.12209299999995 C 361.931094 462.12209299999995 395.30709399999995 485.81009299999994 441.61909399999996 532.290093 C 435.345694 431.04009299999996 460.54909399999997 398.84009299999997 553.6190939999999 398.84009299999997 C 563.9980939999999 398.84009299999997 575.1970939999999 399.21509299999997 587.2210939999999 399.961193 C 504.17409399999985 323.68819299999996 509.83009399999986 282.36119299999996 602.0610939999999 209.56119299999997 C 485.91109399999993 201.04169299999998 458.7010939999999 169.12319299999996 484.9610939999999 58.97119299999997 z M 500.41299999999995 307.999 C 505.03799999999995 320.464 503.80359999999996 334.34700000000004 497.05359999999996 345.8 C 498.35049999999995 347.8234 499.4208 349.9836 500.24499999999995 352.2375 C 503.42859999999996 360.8156 503.06919999999997 370.3035 499.24499999999995 378.61650000000003 C 495.42079999999993 386.92510000000004 488.4479999999999 393.3745 479.86199999999997 396.53450000000004 C 472.0026 399.44860000000006 463.36199999999997 399.44860000000006 455.503 396.53450000000004 C 451.1944 400.95640000000003 445.9522 404.36260000000004 440.159 406.5033 C 429.698 410.351 418.13599999999997 409.8861 408.014 405.2142 C 389.491 419.9022 365.834 426.52320000000003 342.377 423.5852 C 318.92 420.6438 297.63100000000003 408.3942 283.303 389.59319999999997 C 264.127 394.59319999999997 243.725 390.94089999999994 227.47899999999998 379.58919999999995 C 211.237 368.24119999999994 200.784 350.33919999999995 198.885 330.61619999999994 C 196.98659999999998 310.88919999999996 203.83419999999998 291.32719999999995 217.61499999999998 277.08919999999995 C 204.37699999999998 251.27319999999995 205.51699999999997 220.43319999999994 220.62669999999997 195.66719999999995 C 235.73169999999996 170.90119999999996 262.63469999999995 155.77619999999996 291.64669999999995 155.73319999999995 C 307.35769999999997 155.69023099999995 322.75169999999997 160.15899999999996 335.99869999999993 168.61619999999996 C 348.79569999999995 153.94819999999996 367.3266999999999 145.55419999999995 386.79169999999993 145.60019999999997 C 404.7296999999999 145.61191899999997 421.9246999999999 152.74469999999997 434.6076999999999 165.42819999999998 C 447.29169999999993 178.11219999999997 454.4236999999999 195.31119999999999 454.4396999999999 213.24419999999998 L 454.4396999999999 213.86138999999997 C 467.2946999999999 214.22466999999997 479.5056999999999 219.58018999999996 488.4826999999999 228.78738999999996 C 497.4631999999999 237.99438999999995 502.5026999999999 250.33838999999995 502.54169999999993 263.1973899999999 C 502.57294999999993 274.30238999999995 498.81899999999996 285.08838999999995 491.9006999999999 293.7753899999999 C 495.6233999999999 297.9276899999999 498.5139999999999 302.7558899999999 500.41239999999993 307.9983899999999 z" stroke-linecap="round" />
</g>
<g transform="matrix(1.33 0 0 1.33 541.47 547.12)"  >
<path style="stroke: none; stroke-width: 1; stroke-dasharray: none; stroke-linecap: butt; stroke-dashoffset: 0; stroke-linejoin: miter; stroke-miterlimit: 4; fill: rgb(0,0,0); fill-rule: nonzero; opacity: 1;" vector-effect="non-scaling-stroke"  transform=" translate(-350.86, -285.04)" d="M 494.14 263.2 C 494.155625 252.313 489.8431 241.868 482.156 234.161 C 474.4685 226.4501 464.035 222.11 453.148 222.099 C 452.30816000000004 222.0365 451.4683 222.0365 450.62850000000003 222.099 C 449.37070000000006 222.25525 448.10900000000004 221.86853 447.15580000000006 221.0326 C 446.20658000000003 220.13807 445.7105000000001 218.8607 445.81200000000007 217.5599 C 445.89793800000007 216.013 445.89793800000007 214.4622 445.81200000000007 212.9115 C 445.6948100000001 197.3065 439.4331000000001 182.3725 428.3860000000001 171.3455 C 417.33900000000006 160.3225 402.39400000000006 154.0915 386.78800000000007 154.0015 C 368.5540000000001 153.927281 351.32700000000006 162.35309999999998 340.1940000000001 176.7945 C 338.82680000000005 178.4781 336.3971000000001 178.8414 334.5963000000001 177.63434 C 322.0763000000001 168.81014000000002 307.1273000000001 164.09534000000002 291.8113000000001 164.13834 C 265.18230000000005 164.118809 240.54530000000008 178.23634 227.09630000000007 201.22034 C 213.64730000000006 224.20033999999998 213.40530000000007 252.59534 226.45958000000007 275.80233999999996 C 227.4127000000001 277.47423999999995 227.08849000000006 279.58753999999993 225.67442000000008 280.89613999999995 C 212.4864200000001 293.19313999999997 205.61542000000009 310.83014 207.00642000000008 328.8061399999999 C 208.40092000000007 346.7831399999999 217.90442000000007 363.1501399999999 232.82642000000007 373.27113999999995 C 247.75242000000006 383.38813999999996 266.47442000000007 386.16213999999997 283.68942000000004 380.80233999999996 L 284.92382000000003 380.80233999999996 C 286.29102000000006 380.798434 287.57612000000006 381.44295999999997 288.39262 382.53673999999995 C 301.29062000000005 400.7277399999999 321.22862000000003 412.66973999999993 343.35362000000003 415.4587399999999 C 365.47462 418.24783999999994 387.75162000000006 411.6267399999999 404.76362000000006 397.2087399999999 C 406.10742000000005 396.0993399999999 407.99412000000007 395.9196399999999 409.52142000000003 396.7634299999999 C 418.02922 401.4196299999999 428.13442000000003 402.17752999999993 437.24042000000003 398.8337299999999 C 442.66622 396.8103299999999 447.48642 393.4392299999999 451.24042000000003 389.0329299999999 C 452.47092000000004 387.5524299999999 454.56072 387.1110299999999 456.28342000000004 387.9704299999999 C 462.64282000000003 391.0954299999999 469.99842 391.5016299999999 476.66242000000005 389.0915299999999 C 483.3265200000001 386.6853299999999 488.72442000000007 381.6696299999999 491.61942000000005 375.2005299999999 C 494.52962 368.9271299999999 494.81082000000004 361.7475299999999 492.40067000000005 355.2665299999999 C 491.50223000000005 352.84852999999987 490.23657000000003 350.58292999999986 488.65067000000005 348.5438299999999 C 487.55687000000006 347.0633299999999 487.55687000000006 345.0438299999999 488.65067000000005 343.5594299999999 C 495.22097 334.0008299999999 496.7053700000001 321.8294299999999 492.62727000000007 310.9694299999999 C 490.71317000000005 305.72332999999986 487.5608700000001 301.01632999999987 483.44367000000005 297.24642999999986 C 482.6038300000001 296.48861999999986 482.11557000000005 295.41442999999987 482.09987000000007 294.28162999999984 C 482.02955700000007 293.1605299999998 482.43581000000006 292.06282999999985 483.2170700000001 291.25822999999986 C 490.3225700000001 283.65272999999985 494.2330700000001 273.60622999999987 494.1390700000001 263.19922999999983 z" stroke-linecap="round" />
</g>
</svg>